<?xml version="1.0" standalone="no"?><!DOCTYPE svg PUBLIC "-//W3C//DTD SVG 1.1//EN" "http://www.w3.org/Graphics/SVG/1.1/DTD/svg11.dtd"><svg class="icon" width="200px" height="200.00px" viewBox="0 0 1024 1024" version="1.1" xmlns="http://www.w3.org/2000/svg"><path fill="#cdcdcd" d="M410.3 691.6c-6.7 1.7-10.8 8.5-9.1 15.2 4 16 1.6 30.8-6.8 41.5-7.9 10.1-20.6 15.7-35.7 15.7-34.7 0-70.1-28.4-78.8-63.3-4-16-1.6-30.8 6.8-41.5 7.9-10.1 20.6-15.7 35.7-15.7 6.9 0 12.5-5.6 12.5-12.5s-5.6-12.5-12.5-12.5c-23 0-42.6 9-55.4 25.3-13.2 16.9-17.2 39.2-11.3 62.9 5.5 22.1 19.2 42.8 38.5 58.2 19.4 15.5 42.3 24 64.6 24 22.9 0 42.6-9 55.4-25.3 13.2-16.9 17.2-39.2 11.3-62.9-1.7-6.7-8.5-10.8-15.2-9.1zM371.4 662c3.6 2.9 7.1 6.1 10.2 9.5 2.5 2.7 5.8 4 9.2 4 3 0 6-1.1 8.4-3.4 5.1-4.7 5.4-12.6 0.7-17.7-3.9-4.3-8.3-8.3-12.9-12-5.4-4.3-13.3-3.4-17.6 2s-3.4 13.3 2 17.6zM902.5 588.4l-72.9-292.5c-4.9-19.7-15.8-38.1-32.4-52.1l-0.9-0.9c-0.5-0.5-1.1-0.9-1.7-1.3-0.1-0.1-0.2-0.2-0.4-0.3-18.3-14.3-40-21.2-61.6-21.2h-38.2l-32.8-37.7c-9.1-10.5-20.5-19.2-34-25.4-13.5-6.1-27.6-9-41.5-9H394.8c-13.8 0-27.8 2.8-41.1 8.8-13.4 6-24.7 14.6-33.8 25L286 220.1h-16.6c-13.8 0-27.8 2.8-41.1 8.8-13.4 6-24.7 14.6-33.8 25L121 337c-10.4 11.8-18.2 26.2-22.2 42.5s-3.7 32.7 0.1 47.9l54.4 218c-2 20-0.4 41.2 5 62.6 12.3 49.2 42.8 95.3 85.8 129.7 43.2 34.6 94.3 53.6 143.9 53.6h0.6c50.8 0 94.4-19.9 122.6-56 0.5-0.7 1.1-1.4 1.6-2.1l33.1-37.5h186.2c13.8 0 27.8-2.8 41.1-8.8 13.4-6 24.7-14.6 33.8-25l73.4-83.1c10.4-11.8 18.2-26.2 22.2-42.5s3.7-32.7-0.1-47.9zM798.9 379.6l15.2 61-91.7 104.1-15.2-61 91.7-104.1zM675.8 277.2c10.7-4.8 21.9-7.1 32.9-7.1h16c8.8 0 17.5 1.9 25.7 5.8l-39 44.3c-4.6 5.2-4.1 13.1 1.1 17.6 2.4 2.1 5.3 3.1 8.3 3.1 3.5 0 6.9-1.4 9.4-4.2l40.2-45.6c6.2 7.2 10.4 15.6 12.6 24.5l8.6 34.5-91.7 104.1-1.9-7.8c-4.1-16.5-12.5-32.1-24.8-44.9l11.5-13c4.6-5.2 4.1-13.1-1.1-17.6-5.2-4.6-13.1-4.1-17.6 1.1l-12.2 13.8c-16.3-10.2-34.6-15.1-52.8-15.1h-17l64.6-73.4c7.4-8.4 16.5-15.3 27.2-20.1z m-64-75.8l43.7 50.2-99 112.5-43.9-50.2 99.2-112.5zM348.7 225c7.3-8.3 16.4-15.2 27.1-20s21.9-7.1 32.9-7.1h172.8l-67.4 76.3c-7.3 8.3-16.4 15.2-27.1 20s-21.9 7.1-32.9 7.1H281.3l67.4-76.3z m-101.9 45.1h28.7l-32.9 37.2-14 37.4c-2.8 7.4-7.7 14-14.7 18.8s-14.9 7.1-22.8 7.1h-33.2l88.9-100.5zM474 801.7l-6.1 7c-18.5 21-46.8 32.6-79.4 32.7-79.8-0.1-160.9-65.3-180.9-145.5-3.9-15.5-5.1-30.4-3.9-44.4l0.9-7.8c2.6-16.6 9-31.7 18.9-44.4 18.5-23.7 48.1-36.8 83.2-36.8 79.9 0 161.2 65.3 181.2 145.5 8.8 35.8 3.9 69-13.9 93.7z m75.1-85l-7.7 8.7c-0.9-9.7-2.6-19.6-5.1-29.5-12.3-49.2-42.8-95.3-85.8-129.7-43.2-34.6-94.3-53.6-143.9-53.6-2.5 0-5 0.1-7.5 0.2l8.4-9.5c18.6-21.1 46.9-32.7 79.8-32.7 79.9 0 161.2 65.3 181.2 145.5 9.6 38.9 2.6 75.6-19.4 100.6z m178 13.7c-7.9 10.1-19.6 15.4-31.5 15.4H589.9c30.4-37.2 40.3-88.6 27-141.9-12.3-49.2-42.8-95.3-85.8-129.7-43.2-34.6-94.3-53.6-143.9-53.6-47.4 0-89 17.6-117.2 49.6l-81.2 92-3.6 4.2L155 445.3c-2.9-11.5-0.6-24.2 7.3-34.3 7.9-10.1 19.6-15.4 31.5-15.4h1.1c11.9 0 23.9-3.5 34.3-10.8s17.9-17.4 22-28.5l11-30h227.9l36.7 41.9c7.3 8.3 16.4 15.3 27.2 20.2 10.7 4.9 22 7.2 33.1 7.2h9.9c17.2 0 34.6 5.5 49.3 17s24.2 27 28.4 43.7l6.6 26.3c0.1 0.5 0.2 1 0.4 1.5l52.8 212c2.8 11.5 0.5 24.2-7.4 34.3z m2.7-156.3L821.5 470l15.2 61L745 635.2l-15.2-61.1z m118 48.8c-4 16.3-11.8 30.7-22.2 42.5l-19.2 21.7c-7.1 8.1-18.4 12-29.6 9.3-11.2-2.7-19.4-11.4-22-21.9l-2.5-9.9L844 560.5l3.6 14.5c3.9 15.3 4.2 31.6 0.2 47.9z" /></svg>